<svg width="61" height="53" viewBox="0 0 61 53" fill="none" xmlns="http://www.w3.org/2000/svg">
<path d="M34.4452 36.3668C34.3073 36.4421 34.3073 36.6427 34.4452 36.3668V36.3668Z" fill="#CA1F25"/>
<path d="M4.78996 47.3165C4.66457 47.0905 4.48902 46.9147 4.26332 46.8017C4.03761 46.6886 3.76175 46.6259 3.44827 46.6259C2.90909 46.6259 2.48276 46.8017 2.15674 47.1533C1.83072 47.5048 1.66771 47.982 1.66771 48.5722C1.66771 49.2 1.84326 49.6898 2.18181 50.0414C2.52037 50.393 2.98432 50.5688 3.5862 50.5688C3.98746 50.5688 4.33855 50.4683 4.61441 50.2548C4.89027 50.0539 5.10344 49.7525 5.22884 49.3633H3.12225V48.1327H6.73354V49.6772C6.60814 50.0916 6.40752 50.4809 6.10658 50.8325C5.81818 51.184 5.442 51.4729 4.99059 51.6989C4.53918 51.9249 4.02507 52.0254 3.46081 52.0254C2.7837 52.0254 2.19435 51.8747 1.66771 51.5859C1.14106 51.2971 0.727272 50.8827 0.438871 50.3553C0.15047 49.8279 0 49.2377 0 48.5596C0 47.8816 0.15047 47.2914 0.438871 46.764C0.727272 46.2366 1.14106 45.8222 1.66771 45.5334C2.19435 45.2446 2.7837 45.0939 3.46081 45.0939C4.27586 45.0939 4.96551 45.2948 5.51723 45.6841C6.0815 46.0734 6.44513 46.6259 6.63322 47.329H4.78996V47.3165Z" fill="#2D2D2D"/>
<path d="M12.8899 49.6647H9.14068C9.16576 50.0037 9.27862 50.2548 9.4667 50.4306C9.65479 50.6064 9.89304 50.6943 10.1689 50.6943C10.5827 50.6943 10.8711 50.5185 11.0341 50.1669H12.8021C12.7144 50.5185 12.5513 50.845 12.3131 51.1338C12.0749 51.4226 11.7865 51.6361 11.4228 51.7993C11.0717 51.9626 10.6705 52.0379 10.2316 52.0379C9.70495 52.0379 9.22846 51.9249 8.81466 51.6989C8.40087 51.4729 8.07485 51.1464 7.84915 50.732C7.6109 50.3051 7.49805 49.8153 7.49805 49.2503C7.49805 48.6852 7.6109 48.1955 7.83661 47.7685C8.06231 47.3416 8.38833 47.0277 8.80213 46.8017C9.21592 46.5756 9.69241 46.4626 10.2316 46.4626C10.7582 46.4626 11.2222 46.5756 11.6234 46.7891C12.0247 47.0026 12.3507 47.329 12.5764 47.7309C12.8021 48.1327 12.915 48.6099 12.915 49.1624C12.9275 49.3382 12.915 49.5014 12.8899 49.6647ZM11.2222 48.748C11.2222 48.4592 11.1219 48.2332 10.9338 48.0699C10.7457 47.9067 10.4949 47.8188 10.2065 47.8188C9.93065 47.8188 9.69241 47.8941 9.50432 48.0574C9.31623 48.2206 9.19084 48.4466 9.15322 48.748H11.2222Z" fill="#2D2D2D"/>
<path d="M16.979 50.5688V51.9751H16.1389C15.537 51.9751 15.0731 51.8245 14.7345 51.5357C14.3959 51.2468 14.2329 50.7571 14.2329 50.0916V47.9318H13.5684V46.5505H14.2329V45.2446H15.8881V46.5631H16.979V47.9444H15.8881V50.1167C15.8881 50.28 15.9257 50.393 16.001 50.4683C16.0762 50.5436 16.2016 50.5813 16.3897 50.5813H16.979V50.5688Z" fill="#2D2D2D"/>
<path d="M21.4045 51.7993C21.0158 51.6361 20.6898 51.3975 20.4641 51.0836C20.2258 50.7696 20.1004 50.3804 20.0879 49.9409H21.8559C21.881 50.192 21.9688 50.3804 22.1192 50.5185C22.2697 50.6566 22.4578 50.7194 22.696 50.7194C22.9468 50.7194 23.1349 50.6566 23.2728 50.5436C23.4108 50.4306 23.486 50.2674 23.486 50.0665C23.486 49.9032 23.4233 49.7651 23.3105 49.6521C23.1976 49.5391 23.0597 49.4512 22.8967 49.3758C22.7337 49.3005 22.4954 49.2251 22.1945 49.1372C21.7556 48.9991 21.392 48.861 21.1161 48.7354C20.8402 48.5973 20.602 48.3964 20.4014 48.1327C20.2007 47.869 20.1004 47.5174 20.1004 47.0905C20.1004 46.4501 20.3261 45.9603 20.7901 45.5962C21.254 45.232 21.8434 45.0562 22.5832 45.0562C23.3355 45.0562 23.9374 45.232 24.4014 45.5962C24.8653 45.9603 25.1036 46.4501 25.1412 47.0905H23.3481C23.3355 46.8644 23.2603 46.7012 23.1098 46.5756C22.9594 46.4501 22.7713 46.3873 22.533 46.3873C22.3324 46.3873 22.1694 46.4375 22.044 46.5505C21.9186 46.6635 21.8559 46.8142 21.8559 47.0151C21.8559 47.2411 21.9562 47.4044 22.1694 47.53C22.3826 47.6555 22.696 47.7811 23.1349 47.9318C23.5738 48.0825 23.9374 48.2206 24.2007 48.3587C24.4641 48.4968 24.7148 48.6978 24.9155 48.9489C25.1161 49.2126 25.2164 49.5391 25.2164 49.9534C25.2164 50.3427 25.1161 50.6943 24.9155 51.0082C24.7148 51.3222 24.4264 51.5733 24.0628 51.7616C23.6866 51.95 23.2478 52.0379 22.7337 52.0379C22.2446 52.0504 21.8058 51.9626 21.4045 51.7993Z" fill="#2D2D2D"/>
<path d="M31.4856 49.6647H27.7364C27.7615 50.0037 27.8743 50.2548 28.0624 50.4306C28.2505 50.6064 28.4887 50.6943 28.7646 50.6943C29.1784 50.6943 29.4668 50.5185 29.6298 50.1669H31.3978C31.3101 50.5185 31.147 50.845 30.9088 51.1338C30.6705 51.4226 30.3821 51.6361 30.0185 51.7993C29.6674 51.9626 29.2662 52.0379 28.8273 52.0379C28.3006 52.0379 27.8242 51.9249 27.4104 51.6989C26.9966 51.4729 26.6706 51.1464 26.4448 50.732C26.2066 50.3051 26.0938 49.8153 26.0938 49.2503C26.0938 48.6852 26.2066 48.1955 26.4323 47.7685C26.658 47.3416 26.984 47.0277 27.3978 46.8017C27.8116 46.5756 28.2881 46.4626 28.8273 46.4626C29.3539 46.4626 29.8179 46.5756 30.2191 46.7891C30.6204 47.0026 30.9464 47.329 31.1721 47.7309C31.3978 48.1327 31.5107 48.6099 31.5107 49.1624C31.5107 49.3382 31.4981 49.5014 31.4856 49.6647ZM29.8179 48.748C29.8179 48.4592 29.7176 48.2332 29.5295 48.0699C29.3414 47.9067 29.0906 47.8188 28.8022 47.8188C28.5264 47.8188 28.2881 47.8941 28.1 48.0574C27.9119 48.2206 27.7865 48.4466 27.7489 48.748H29.8179Z" fill="#2D2D2D"/>
<path d="M35.561 50.5688V51.9751H34.7209C34.119 51.9751 33.6551 51.8245 33.3165 51.5357C32.978 51.2468 32.815 50.7571 32.815 50.0916V47.9318H32.1504V46.5505H32.815V45.2446H34.4701V46.5631H35.561V47.9444H34.4701V50.1167C34.4701 50.28 34.5077 50.393 34.583 50.4683C34.6582 50.5436 34.7836 50.5813 34.9717 50.5813H35.561V50.5688Z" fill="#2D2D2D"/>
<path d="M45.2673 45.1567L42.8473 51.9751H40.7658L38.3457 45.1567H40.1137L41.8065 50.3051L43.4993 45.1567H45.2673Z" fill="#2D2D2D"/>
<path d="M46.2446 45.7343C46.0565 45.5585 45.9688 45.345 45.9688 45.0939C45.9688 44.8302 46.0565 44.6167 46.2446 44.4535C46.4327 44.2777 46.6709 44.2024 46.9594 44.2024C47.2478 44.2024 47.4735 44.2903 47.6615 44.4535C47.8496 44.6293 47.9374 44.8428 47.9374 45.0939C47.9374 45.345 47.8496 45.5585 47.6615 45.7343C47.4735 45.9101 47.2478 45.9855 46.9594 45.9855C46.6584 45.998 46.4202 45.9101 46.2446 45.7343ZM47.7744 46.5631V51.9877H46.1192V46.5631H47.7744Z" fill="#2D2D2D"/>
<path d="M50.0812 51.8119C49.7176 51.6486 49.4166 51.4226 49.2035 51.1464C48.9903 50.8701 48.8649 50.5436 48.8398 50.2046H50.4825C50.5075 50.3929 50.5953 50.5436 50.7458 50.6566C50.8963 50.7696 51.0969 50.8324 51.3226 50.8324C51.5232 50.8324 51.6862 50.7948 51.7991 50.7069C51.9119 50.6315 51.9746 50.5185 51.9746 50.3929C51.9746 50.2423 51.8994 50.1167 51.7364 50.0539C51.5734 49.9786 51.3101 49.8907 50.9464 49.8028C50.5577 49.7149 50.2317 49.6144 49.9809 49.514C49.7176 49.4135 49.5044 49.2503 49.3163 49.0368C49.1282 48.8233 49.0405 48.522 49.0405 48.1578C49.0405 47.8439 49.1282 47.5676 49.2913 47.3039C49.4668 47.0528 49.7176 46.8519 50.0436 46.7012C50.3822 46.5505 50.7709 46.4752 51.2348 46.4752C51.9119 46.4752 52.4511 46.6384 52.8398 46.9774C53.2286 47.3165 53.4543 47.756 53.517 48.321H51.9746C51.9496 48.1327 51.8618 47.982 51.7239 47.869C51.5859 47.756 51.3978 47.7057 51.1721 47.7057C50.984 47.7057 50.8336 47.7434 50.7207 47.8188C50.6204 47.8941 50.5702 47.9946 50.5702 48.1201C50.5702 48.2708 50.658 48.3964 50.821 48.4717C50.984 48.5471 51.2474 48.6224 51.5859 48.7103C51.9872 48.8108 52.3132 48.9112 52.564 49.0117C52.8148 49.1121 53.0405 49.2754 53.2286 49.5014C53.4166 49.7274 53.517 50.0288 53.5295 50.4055C53.5295 50.7194 53.4417 51.0082 53.2662 51.2594C53.0906 51.5105 52.8273 51.6989 52.5013 51.8496C52.1627 51.9877 51.7865 52.063 51.3477 52.063C50.8712 52.0505 50.4574 51.9751 50.0812 51.8119Z" fill="#2D2D2D"/>
<path d="M54.708 47.7936C54.9212 47.3667 55.2096 47.0528 55.5607 46.8267C55.9243 46.6007 56.3256 46.4877 56.777 46.4877C57.1532 46.4877 57.4917 46.563 57.7801 46.7263C58.0685 46.877 58.2942 47.0904 58.4447 47.3416V46.5756H60.0999V52.0002H58.4447V51.2342C58.2817 51.4854 58.056 51.6863 57.7676 51.8495C57.4792 52.0002 57.1406 52.0881 56.7644 52.0881C56.3256 52.0881 55.9243 51.9751 55.5607 51.7491C55.197 51.5231 54.9086 51.1966 54.708 50.7696C54.4948 50.3427 54.3945 49.853 54.3945 49.3005C54.3945 48.6977 54.4948 48.208 54.708 47.7936ZM58.0936 48.2834C57.8679 48.0448 57.5795 47.9192 57.2535 47.9192C56.9274 47.9192 56.6391 48.0322 56.4133 48.2708C56.1876 48.5094 56.0748 48.8359 56.0748 49.2502C56.0748 49.6646 56.1876 49.9911 56.4133 50.2297C56.6391 50.4683 56.9274 50.5938 57.2535 50.5938C57.5795 50.5938 57.8679 50.4683 58.0936 50.2297C58.3193 49.9911 58.4322 49.6646 58.4322 49.2502C58.4447 48.8484 58.3318 48.5219 58.0936 48.2834Z" fill="#2D2D2D"/>
<path d="M9.63087 11.2402C9.96943 10.8886 10.5337 10.8886 10.8848 11.2402L12.1011 12.4708C12.4396 12.8224 12.0384 13.0107 11.6873 13.3623L11.5995 13.4125C11.261 13.7641 11.3487 14.1911 11.0102 13.852L9.63087 12.521C9.29231 12.1568 9.29231 11.5792 9.63087 11.2402Z" fill="#F72585"/>
<path d="M8.56446 13.2494C8.91556 12.8978 9.47982 12.8978 9.83091 13.2494L10.3952 13.827C10.7337 14.1786 10.7337 14.7436 10.3952 15.0827C10.0441 15.4343 9.47981 15.4343 9.12872 15.0827L8.56446 14.5051C8.22591 14.166 8.22591 13.601 8.56446 13.2494Z" fill="#F72585"/>
<path d="M7.63673 15.3087C7.98783 14.9571 8.5521 14.9571 8.90319 15.3087L9.46746 15.8863C9.80602 16.2379 9.80602 16.803 9.46746 17.142C9.11636 17.4936 8.5521 17.4936 8.201 17.142L7.63673 16.5644C7.29817 16.2128 7.29817 15.6477 7.63673 15.3087Z" fill="#F72585"/>
<path d="M6.75999 16.9913C7.02332 16.7276 7.44965 16.7276 7.71297 16.9913L8.2647 17.5564C8.52802 17.8201 8.52802 18.247 8.2647 18.5107C8.00138 18.7744 7.57504 18.7744 7.31172 18.5107L6.75999 17.9456C6.49667 17.6819 6.49667 17.255 6.75999 16.9913Z" fill="#F72585"/>
<path d="M15.6492 5.89093L22.2448 9.18086C21.367 9.9594 20.0128 11.4914 19.762 11.7676C19.5865 11.956 19.5363 12.0815 19.4235 12.2573C19.0598 12.8098 19.0348 13.5256 19.2605 14.1534C19.6868 15.3715 20.088 16.6021 20.5018 17.8201C20.6899 18.3726 20.7526 18.9251 20.389 19.5655C20.0504 18.6614 19.7244 17.8452 19.4485 17.0164C19.2354 16.376 18.8717 15.8863 18.3075 15.5096C17.7808 15.1706 17.3043 14.7562 16.7902 14.4046C16.4391 14.166 16.063 13.9149 15.6116 14.1911C15.2228 14.4297 15.0222 14.9696 15.0348 15.4091C15.0473 15.8361 15.2103 16.2379 15.4486 16.5895C15.8498 17.2048 16.5395 17.6568 16.8279 18.3475C17.0034 18.7744 16.9658 19.239 16.9533 19.6911C16.9533 19.892 16.9407 20.0929 16.9031 20.2938C16.8028 20.7459 16.4141 21.0347 16.1006 21.3486C15.7495 21.7002 15.3859 22.0643 15.0222 22.4159C14.3075 23.1317 13.5802 23.8349 12.8655 24.5381C12.5144 24.8897 12.1507 25.2413 11.7997 25.5929C11.6492 25.7435 11.4611 25.8566 11.2855 25.9821C10.947 26.2207 10.6084 26.2333 10.2949 25.9193C9.98147 25.5929 9.8937 25.2162 10.1194 24.8269C10.3075 24.5004 10.5708 24.2116 10.8341 23.9353C11.6241 23.1442 12.552 22.4285 13.2417 21.5495C13.2793 21.4993 13.3169 21.4491 13.2918 21.3863C13.2793 21.336 13.2166 21.3109 13.1664 21.3235C13.1163 21.336 13.0661 21.3612 13.0285 21.3988C12.6899 21.6374 12.4015 21.9137 12.088 22.2025C11.7746 22.5038 11.3733 22.8931 11.0975 23.1568C10.9094 23.3326 10.7213 23.521 10.5207 23.6842C9.90623 24.2116 9.45482 24.2493 9.04103 23.8098C8.62724 23.3703 8.68993 22.755 9.20404 22.215C9.84354 21.5495 10.5708 20.771 11.1351 20.0929C11.1476 20.0678 11.1602 20.0427 11.1602 20.0301C11.1602 19.9799 11.11 19.9548 11.0598 19.9548C11.0097 19.9548 10.9721 19.9799 10.9344 20.005C10.295 20.5575 9.65545 21.2105 9.06611 21.8132C8.66485 22.2276 8.31376 22.2778 7.95012 21.9639C7.59903 21.6625 7.56141 21.1854 7.89997 20.771C8.3263 20.2561 8.80279 19.7664 9.24166 19.2641C9.4799 19.0004 9.74323 18.7493 9.91877 18.4479C9.94385 18.3977 9.96893 18.3224 9.93131 18.2847C9.8937 18.2345 9.80592 18.2596 9.75576 18.2972C9.30435 18.7116 8.99088 19.0632 8.6147 19.4399C8.389 19.666 7.76204 20.5449 7.48618 20.344C7.41094 20.2938 7.34824 20.2436 7.31062 20.1682C7.21031 19.9924 7.16016 19.7915 7.16016 19.6032C7.16016 19.4776 7.18523 19.352 7.27301 19.2516C7.49871 18.9753 7.98774 19.126 8.31376 18.9628C8.66485 18.787 8.82787 18.4982 8.86548 18.134C8.85295 17.9708 8.99088 17.8703 9.05357 17.8577C10.0065 17.5689 10.32 16.9662 9.96893 16.037C11.0348 15.4091 11.2605 14.8566 10.9219 13.8018L11.8874 11.4035C11.9 11.3783 13.6805 7.98795 15.6492 5.89093Z" fill="#7209B7"/>
<path d="M21.1543 27.3132C21.1543 27.3006 21.1418 27.3006 21.1543 27.3132C20.7406 26.9239 20.1888 26.3839 20.0509 26.0826C19.449 24.6887 19.5117 23.8851 19.9506 22.3908C20.2264 21.4616 20.2766 20.4821 19.913 19.5278C19.5744 18.6363 19.2358 17.7447 18.8597 16.8783C18.7468 16.602 18.5713 16.3258 18.3456 16.1374C17.7061 15.6226 17.0164 15.158 16.3393 14.6934C16.0007 14.4548 15.7876 14.5176 15.6246 14.9068C15.3738 15.4719 15.449 16.0118 15.9004 16.4262C17.0164 17.4308 17.681 18.5986 17.4427 20.1808C17.3926 20.5324 17.3299 20.8212 17.0666 21.0723C16.1136 22.0015 15.1732 22.9433 14.2202 23.8725C13.4427 24.6385 12.9663 25.0529 12.1387 25.8565C12.7406 27.3006 13.2797 28.2047 14.1324 29.5609C14.4333 30.0631 15.8127 31.7709 16.5399 32.2606L24.5775 29.6236C24.5901 29.6362 22.0195 28.1168 21.1543 27.3132Z" fill="#F72585"/>
<path d="M34.344 35.5631C34.2187 35.6383 34.2187 35.8389 34.344 35.5631V35.5631Z" fill="#CA1F25"/>
<path d="M29.0529 0.0142212C24.0247 0.0142212 19.4479 2.06102 16.125 5.37607L22.7833 8.65345C24.6015 7.48564 26.7457 6.80756 29.0529 6.80756C33.4667 6.80756 37.3162 9.29385 39.3099 12.9479H46.6077C44.2128 5.45141 37.2535 0.0142212 29.0529 0.0142212Z" fill="#7209B7"/>
<path d="M52.1002 33.7172L49.7053 29.3474L50.3573 28.0791C50.5328 27.7275 50.3949 27.288 50.0564 27.1122C49.7053 26.9364 49.2789 27.0745 49.1034 27.4261L48.8902 27.8405L46.9592 24.3246L48.0877 21.562C48.8024 19.8041 47.9749 17.7949 46.2444 17.0666C44.5015 16.3383 42.5203 17.1797 41.793 18.9376L40.8777 21.1853L36.652 21.7378L36.8526 21.3109C37.0282 20.9593 36.8777 20.5198 36.5266 20.344C36.1755 20.1682 35.7492 20.3189 35.5736 20.6705L34.9467 21.9513L30.0438 22.5917L29.2539 24.199L38.2194 26.3086C36.0752 28.9455 32.8526 30.6282 29.2288 30.6282C28.0752 30.6282 26.6457 30.3645 25.5924 30.0506L17.0156 32.9261C20.2257 35.6761 24.7021 37.4215 29.2288 37.4215C35.5235 37.4215 41.0532 34.2069 44.3887 29.3348L51.2977 35.3119L52.1002 33.7172Z" fill="#F72585"/>
</svg>
